<svg width="1017" height="454" viewBox="0 0 1017 454" fill="none" xmlns="http://www.w3.org/2000/svg">
<g clip-path="url(#clip0_2311_2)">
<path d="M209.385 45.01C226.212 17.0784 256.438 0 289.046 0H559.204C581.749 0 601.506 15.0881 607.441 36.8382L613.293 58.2878C624.024 97.6136 585.715 132.564 547.536 118.279L373.761 53.2626C341.08 41.0349 306.24 65.1978 306.24 100.092V147.318C306.24 176.694 331.445 199.741 360.704 197.118L634.464 172.581C660.245 170.271 680 148.666 680 122.781V50C680 22.3858 702.386 0 730 0H746.335C783.541 0 807.714 39.1859 791.019 72.4358L760.264 133.688C746.647 160.808 760.132 193.707 788.866 203.467L843.048 221.871C877.962 233.73 913.264 205.008 908.754 168.412L894.915 56.1154C891.241 26.3009 914.5 0 944.54 0H963.798C996.992 0 1020.97 31.7496 1011.89 63.677L911.57 416.443C905.293 438.515 884.798 453.481 861.864 452.74L810.077 451.069C770.259 449.784 748.537 404.044 772.701 372.372L794.122 344.297C805.975 328.761 799.382 306.187 781.031 299.472L728.418 280.22C669.354 258.607 606.694 248.519 543.831 250.503L366.231 256.107C330.339 257.239 307.308 294.713 322.508 327.246L342.514 370.067C354.227 395.137 384.075 405.927 409.111 394.14L543.898 330.683C571.883 317.508 604.996 332.646 613.341 362.43L621.209 390.509C630.144 422.394 606.177 454 573.064 454H270.48C236.465 454 212.379 420.77 222.962 388.443L262.538 267.557C273.121 235.23 249.035 202 215.02 202H189.488C164.123 202 142.777 220.993 139.827 246.187L120.673 409.813C117.723 435.007 96.377 454 71.0117 454H51.4931C12.5886 454 -11.4112 411.524 8.66429 378.199L209.385 45.01Z" fill="#A32323"/>
<path d="M156.663 239.297C161.15 232.678 170.337 231.31 176.558 236.335V236.335C191.249 248.199 212.113 248.594 227.242 237.295L228.107 236.65C234.949 231.539 244.726 233.624 248.889 241.08L249.503 242.178C253.82 249.91 250.654 259.68 242.624 263.41L233.874 267.475C213.353 277.007 189.681 277.051 169.124 267.596L161.851 264.251C153.029 260.193 149.959 249.185 155.409 241.147L156.663 239.297Z" fill="#A32323"/>
</g>
<defs>
<clipPath id="clip0_2311_2">
<rect width="1017" height="454" fill="white"/>
</clipPath>
</defs>
</svg>
